<?xml version="1.0" encoding="utf-8"?>
<!-- Generator: Adobe Illustrator 16.0.0, SVG Export Plug-In . SVG Version: 6.00 Build 0)  -->
<!DOCTYPE svg PUBLIC "-//W3C//DTD SVG 1.1//EN" "http://www.w3.org/Graphics/SVG/1.1/DTD/svg11.dtd">
<svg version="1.1" id="Layer_1" xmlns="http://www.w3.org/2000/svg" xmlns:xlink="http://www.w3.org/1999/xlink" x="0px" y="0px"
	 width="235.858px" height="41.343px" viewBox="0 0 235.858 41.343" enable-background="new 0 0 235.858 41.343"
	 xml:space="preserve">
<g>
	<g>
		<g>
			<g>
				<path fill="#222222" d="M0.348,41.343V21.995h13.691v3.626H4.466v4.061h9.37v3.626h-9.37v8.035H0.348z"/>
			</g>
			<g>
				<path fill="#222222" d="M21.777,31.684c0-5.83,4.265-10.008,10.124-10.008c5.83,0,10.095,4.178,10.095,10.008
					s-4.265,10.008-10.095,10.008C26.042,41.691,21.777,37.514,21.777,31.684z M37.761,31.684c0-3.626-2.292-6.353-5.859-6.353
					c-3.597,0-5.889,2.727-5.889,6.353c0,3.597,2.292,6.353,5.889,6.353C35.469,38.036,37.761,35.28,37.761,31.684z"/>
			</g>
			<g>
				<path fill="#222222" d="M50.691,33.598V21.995h4.176v11.487c0,2.697,1.566,4.554,4.555,4.554s4.525-1.856,4.525-4.554V21.995
					h4.205v11.603c0,4.787-2.842,8.094-8.73,8.094S50.691,38.385,50.691,33.598z"/>
			</g>
			<g>
				<path fill="#222222" d="M91.12,41.343l-9.225-12.618v12.618h-4.118V21.995h4.234l8.963,12.153V21.995h4.119v19.348H91.12z"/>
			</g>
			<g>
				<path fill="#222222" d="M104.718,41.343V21.995h7.629c6.062,0,10.269,3.858,10.269,9.659c0,5.859-4.206,9.688-10.24,9.688
					H104.718z M118.409,31.654c0-3.394-2.089-6.033-6.034-6.033h-3.538v12.096h3.51C116.176,37.717,118.409,34.961,118.409,31.654z"
					/>
			</g>
			<g>
				<path fill="#222222" d="M143.726,41.343l-1.218-3.278h-8.297l-1.218,3.278h-4.671l7.455-19.348h5.164l7.454,19.348H143.726z
					 M138.359,26.114l-3.017,8.325h6.033L138.359,26.114z"/>
			</g>
			<g>
				<path fill="#222222" d="M158.6,41.343V25.621h-5.656v-3.626h15.432v3.626h-5.627v15.722H158.6z"/>
			</g>
			<g>
				<path fill="#222222" d="M176.811,41.343V21.995h4.119v19.348H176.811z"/>
			</g>
			<g>
				<path fill="#222222" d="M189.628,31.684c0-5.83,4.265-10.008,10.124-10.008c5.83,0,10.094,4.178,10.094,10.008
					s-4.264,10.008-10.094,10.008C193.893,41.691,189.628,37.514,189.628,31.684z M205.611,31.684c0-3.626-2.292-6.353-5.859-6.353
					c-3.598,0-5.889,2.727-5.889,6.353c0,3.597,2.291,6.353,5.889,6.353C203.319,38.036,205.611,35.28,205.611,31.684z"/>
			</g>
			<g>
				<path fill="#222222" d="M231.885,41.343l-9.225-12.618v12.618h-4.119V21.995h4.235l8.964,12.153V21.995h4.118v19.348H231.885z"
					/>
			</g>
		</g>
		<g>
			<g>
				<path fill="#222222" d="M105.439,9.343V1.75h-2.732V0h7.453v1.75h-2.718v7.593H105.439z"/>
			</g>
			<g>
				<path fill="#222222" d="M122.312,9.343V5.406h-4.413v3.937h-1.988V0h1.988v3.67h4.413V0h2.003v9.343H122.312z"/>
			</g>
			<g>
				<path fill="#222222" d="M130.623,9.343V0h6.612v1.75h-4.622v1.962h4.523v1.751h-4.523v2.129h4.622v1.751H130.623z"/>
			</g>
		</g>
	</g>
	<g>
		<g>
			<line fill="#222222" x1="0" y1="4.846" x2="79" y2="4.846"/>
			<rect y="2.846" fill="#222222" width="79" height="3"/>
		</g>
	</g>
	<g>
		<g>
			<line fill="#222222" x1="157" y1="4.846" x2="236" y2="4.846"/>
			<rect x="157" y="2.846" fill="#222222" width="79" height="3"/>
		</g>
	</g>
</g>
</svg>
